<svg xmlns="http://www.w3.org/2000/svg" viewBox="0 0 620 380">
  <style>
    text { font-family: -apple-system, 'Segoe UI', Helvetica, Arial, sans-serif; }
    .title { font-size: 16px; font-weight: 600; fill: #1a1a1a; }
    .subtitle { font-size: 11px; fill: #666; }
    .axis-label { font-size: 10px; fill: #999; }
    .source-label { font-size: 12px; font-weight: 600; }
    .note { font-size: 10px; fill: #888; }
    .legend-text { font-size: 11px; fill: #333; }
  </style>

  <!-- Title -->
  <text x="310" y="28" text-anchor="middle" class="title">The Geothermal-Sunshine-Battery Triad</text>
  <text x="310" y="46" text-anchor="middle" class="subtitle">Three complementary sources covering 24-hour demand</text>

  <g transform="translate(70, 65)">
    <!-- Chart area: 500w x 250h -->
    <!-- Axes -->
    <line x1="0" y1="0" x2="0" y2="250" stroke="#ccc" stroke-width="1"/>
    <line x1="0" y1="250" x2="500" y2="250" stroke="#ccc" stroke-width="1"/>

    <!-- Y-axis -->
    <text x="-15" y="125" text-anchor="middle" transform="rotate(-90, -15, 125)" class="axis-label">Power</text>

    <!-- X-axis time labels -->
    <text x="0" y="266" text-anchor="middle" class="axis-label">00:00</text>
    <text x="125" y="266" text-anchor="middle" class="axis-label">06:00</text>
    <text x="250" y="266" text-anchor="middle" class="axis-label">12:00</text>
    <text x="375" y="266" text-anchor="middle" class="axis-label">18:00</text>
    <text x="500" y="266" text-anchor="middle" class="axis-label">24:00</text>

    <!-- Night/day shading -->
    <rect x="0" y="0" width="125" height="250" fill="#1a1a3a" opacity="0.03"/>
    <rect x="375" y="0" width="125" height="250" fill="#1a1a3a" opacity="0.03"/>

    <!-- Layer 1: Geothermal baseload (flat band at bottom) -->
    <rect x="0" y="170" width="500" height="80" fill="#d94f30" opacity="0.3"/>
    <text x="250" y="218" text-anchor="middle" class="source-label" fill="#d94f30" opacity="0.8">Geothermal Baseload</text>
    <text x="250" y="232" text-anchor="middle" class="note" fill="#d94f30">24 hours / 365 days -- capacity factor &gt;90%</text>

    <!-- Layer 2: PV generation (bell hump, on top of geothermal) -->
    <path d="M 0,170 L 105,170 C 130,170 150,160 170,140 C 190,110 210,70 230,45 C 240,35 250,30 260,35 C 280,50 300,90 320,130 C 340,155 360,167 385,170 L 500,170 L 500,170 L 0,170 Z"
      fill="#f9a825" opacity="0.35"/>
    <text x="250" y="100" text-anchor="middle" class="source-label" fill="#b8860b">PV Generation</text>
    <text x="250" y="114" text-anchor="middle" class="note" fill="#b8860b">sunrise to sunset -- peak at noon</text>

    <!-- Layer 3: Battery tanker discharge (evening hump, filling gap) -->
    <path d="M 340,170 C 355,168 365,160 375,145 C 385,125 395,110 410,100 C 425,95 435,100 445,115 C 455,135 465,155 480,165 C 490,170 500,170 500,170 L 500,170 L 340,170 Z"
      fill="#1a9988" opacity="0.35"/>
    <!-- Morning discharge (smaller) -->
    <path d="M 0,170 C 10,170 20,168 30,160 C 40,150 50,145 60,142 C 75,140 85,145 95,155 C 100,162 105,170 110,170 L 0,170 Z"
      fill="#1a9988" opacity="0.25"/>

    <text x="420" y="130" text-anchor="middle" class="source-label" fill="#1a9988">Battery</text>
    <text x="420" y="144" text-anchor="middle" class="source-label" fill="#1a9988">Ships</text>
    <text x="420" y="158" text-anchor="middle" class="note" fill="#1a9988">evening discharge</text>

    <!-- Demand curve overlay (dashed) -->
    <path d="M 0,130 C 30,128 50,132 80,138 C 100,135 120,120 140,100 C 160,85 180,70 210,55 C 230,48 250,50 280,58 C 310,70 330,80 350,85 C 370,78 390,65 410,55 C 425,50 435,48 445,52 C 465,65 480,90 500,120"
      fill="none" stroke="#2c3e50" stroke-width="2" stroke-dasharray="6,3"/>

    <!-- Demand label -->
    <text x="465" y="86" class="note" fill="#2c3e50" font-weight="600">demand</text>
  </g>

  <!-- Legend -->
  <g transform="translate(70, 345)">
    <rect x="0" y="-4" width="18" height="12" rx="2" fill="#d94f30" opacity="0.4"/>
    <text x="24" y="5" class="legend-text">Geothermal (baseload)</text>
    <rect x="170" y="-4" width="18" height="12" rx="2" fill="#f9a825" opacity="0.45"/>
    <text x="194" y="5" class="legend-text">PV (daytime)</text>
    <rect x="290" y="-4" width="18" height="12" rx="2" fill="#1a9988" opacity="0.4"/>
    <text x="314" y="5" class="legend-text">Battery tankers (fill gaps)</text>
    <line x1="430" y1="2" x2="455" y2="2" stroke="#2c3e50" stroke-width="2" stroke-dasharray="6,3"/>
    <text x="462" y="5" class="legend-text">Demand</text>
  </g>

  <text x="310" y="375" text-anchor="middle" class="subtitle">Geothermal runs at midnight. Sunshine runs at noon. Battery tankers bridge the gap.</text>
</svg>
