<svg xmlns="http://www.w3.org/2000/svg" viewBox="0 0 520 360">
  <style>
    text { font-family: -apple-system, 'Segoe UI', Helvetica, Arial, sans-serif; }
    .title { font-size: 16px; font-weight: 600; fill: #1a1a1a; }
    .subtitle { font-size: 11px; fill: #666; }
    .bar-label { font-size: 13px; font-weight: 600; fill: #333; }
    .value { font-size: 14px; font-weight: 700; }
    .axis { font-size: 10px; fill: #999; }
    .note { font-size: 10px; fill: #888; }
    .tariff-label { font-size: 11px; font-weight: 600; fill: #e67e22; }
  </style>

  <!-- Title -->
  <text x="260" y="28" text-anchor="middle" class="title">Cost of Electricity on Remote Islands</text>
  <text x="260" y="46" text-anchor="middle" class="subtitle">Diesel generation vs battery ship delivery ($/MWh)</text>

  <!-- Y-axis scale marks -->
  <g transform="translate(100, 60)">
    <!-- $600 -->
    <line x1="0" y1="0" x2="350" y2="0" stroke="#f0f0f0" stroke-width="1"/>
    <text x="-8" y="4" text-anchor="end" class="axis">$600</text>
    <!-- $500 -->
    <line x1="0" y1="41.7" x2="350" y2="41.7" stroke="#f0f0f0" stroke-width="1"/>
    <text x="-8" y="45.7" text-anchor="end" class="axis">$500</text>
    <!-- $400 -->
    <line x1="0" y1="83.3" x2="350" y2="83.3" stroke="#f0f0f0" stroke-width="1"/>
    <text x="-8" y="87.3" text-anchor="end" class="axis">$400</text>
    <!-- $300 -->
    <line x1="0" y1="125" x2="350" y2="125" stroke="#f0f0f0" stroke-width="1"/>
    <text x="-8" y="129" text-anchor="end" class="axis">$300</text>
    <!-- $200 -->
    <line x1="0" y1="166.7" x2="350" y2="166.7" stroke="#f0f0f0" stroke-width="1"/>
    <text x="-8" y="170.7" text-anchor="end" class="axis">$200</text>
    <!-- $100 -->
    <line x1="0" y1="208.3" x2="350" y2="208.3" stroke="#f0f0f0" stroke-width="1"/>
    <text x="-8" y="212.3" text-anchor="end" class="axis">$100</text>
    <!-- $0 -->
    <line x1="0" y1="250" x2="350" y2="250" stroke="#ccc" stroke-width="1"/>
    <text x="-8" y="254" text-anchor="end" class="axis">$0</text>

    <!-- Tariff line at $73/MWh = 219.6 from top -->
    <line x1="-5" y1="219.6" x2="355" y2="219.6" stroke="#e67e22" stroke-width="2" stroke-dasharray="8,4"/>
    <text x="358" y="215" class="tariff-label">consumer</text>
    <text x="358" y="228" class="tariff-label">tariff $73</text>

    <!-- Diesel bar (range $300-550) -->
    <!-- $550 = 20.8 from top, $300 = 125 from top -->
    <rect x="50" y="20.8" width="90" height="229.2" rx="4" fill="#3d3d3d" opacity="0.15"/>
    <rect x="50" y="20.8" width="90" height="104.2" rx="4" fill="#3d3d3d" opacity="0.85"/>
    <text x="95" y="68" text-anchor="middle" class="value" fill="white">$300</text>
    <text x="95" y="84" text-anchor="middle" class="value" fill="white">-550</text>
    <!-- Subsidy bracket -->
    <line x1="145" y1="20.8" x2="155" y2="20.8" stroke="#c0392b" stroke-width="1.5"/>
    <line x1="155" y1="20.8" x2="155" y2="219.6" stroke="#c0392b" stroke-width="1.5"/>
    <line x1="145" y1="219.6" x2="155" y2="219.6" stroke="#c0392b" stroke-width="1.5"/>
    <text x="162" y="124" class="note" fill="#c0392b" font-weight="600">subsidy</text>
    <text x="162" y="136" class="note" fill="#c0392b">$227-477</text>

    <!-- Battery ship bar (range $120-180) -->
    <!-- $180 = 175 from top, $120 = 200 from top -->
    <rect x="220" y="175" width="90" height="75" rx="4" fill="#1a9988" opacity="0.15"/>
    <rect x="220" y="175" width="90" height="25" rx="4" fill="#1a9988" opacity="0.85"/>
    <text x="265" y="168" text-anchor="middle" class="value" fill="#1a9988">$120-180</text>
    <!-- Subsidy bracket -->
    <line x1="315" y1="175" x2="325" y2="175" stroke="#e67e22" stroke-width="1.5"/>
    <line x1="325" y1="175" x2="325" y2="219.6" stroke="#e67e22" stroke-width="1.5"/>
    <line x1="315" y1="219.6" x2="325" y2="219.6" stroke="#e67e22" stroke-width="1.5"/>
    <text x="332" y="200" class="note" fill="#e67e22" font-weight="600">$47-107</text>

    <!-- Bar labels -->
    <text x="95" y="268" text-anchor="middle" class="bar-label">Remote Island</text>
    <text x="95" y="282" text-anchor="middle" class="bar-label" fill="#666" font-weight="400">Diesel</text>
    <text x="265" y="268" text-anchor="middle" class="bar-label">Battery Ship</text>
    <text x="265" y="282" text-anchor="middle" class="bar-label" fill="#666" font-weight="400">(hub model)</text>
  </g>

  <!-- Bottom note -->
  <text x="260" y="352" text-anchor="middle" class="subtitle">Subsidy reduction: 50-80% per island served</text>
</svg>
